<svg width="260" height="477" viewBox="0 0 260 477" fill="none" xmlns="http://www.w3.org/2000/svg">
<path d="M43.3333 325.227C43.3333 319.477 41.0506 313.962 36.9873 309.896C32.924 305.83 27.413 303.545 21.6667 303.545C15.9203 303.545 10.4093 305.83 6.34602 309.896C2.28274 313.962 0 319.477 0 325.227C0.0344036 353.969 11.4591 381.523 31.7681 401.846C52.0771 422.169 79.6121 433.602 108.333 433.636V455.318C108.333 461.069 110.616 466.583 114.679 470.65C118.743 474.716 124.254 477 130 477C135.746 477 141.257 474.716 145.321 470.65C149.384 466.583 151.667 461.069 151.667 455.318V433.636C180.398 433.636 207.953 422.215 228.27 401.884C248.586 381.553 260 353.979 260 325.227C260 296.475 248.586 268.901 228.27 248.57C207.953 228.24 180.398 216.818 151.667 216.818V86.7273C168.906 86.7273 185.439 93.5803 197.629 105.779C209.818 117.977 216.667 134.522 216.667 151.773C216.667 157.523 218.949 163.038 223.013 167.104C227.076 171.17 232.587 173.455 238.333 173.455C244.08 173.455 249.591 171.17 253.654 167.104C257.717 163.038 260 157.523 260 151.773C259.966 123.031 248.541 95.4771 228.232 75.1539C207.923 54.8308 180.388 43.3981 151.667 43.3636V21.6818C151.667 15.9314 149.384 10.4166 145.321 6.35046C141.257 2.28433 135.746 0 130 0C124.254 0 118.743 2.28433 114.679 6.35046C110.616 10.4166 108.333 15.9314 108.333 21.6818V43.3636C79.6015 43.3636 52.0465 54.7853 31.7301 75.1159C11.4137 95.4466 0 123.021 0 151.773C0 180.525 11.4137 208.099 31.7301 228.43C52.0465 248.76 79.6015 260.182 108.333 260.182V390.273C91.0943 390.273 74.5612 383.42 62.3714 371.221C50.1815 359.023 43.3333 342.478 43.3333 325.227ZM151.667 260.182C168.906 260.182 185.439 267.035 197.629 279.233C209.818 291.432 216.667 307.976 216.667 325.227C216.667 342.478 209.818 359.023 197.629 371.221C185.439 383.42 168.906 390.273 151.667 390.273V260.182ZM43.3333 151.773C43.3333 134.522 50.1815 117.977 62.3714 105.779C74.5612 93.5803 91.0943 86.7273 108.333 86.7273V216.818C91.0943 216.818 74.5612 209.965 62.3714 197.767C50.1815 185.568 43.3333 169.024 43.3333 151.773Z" fill="white"/>
</svg>
