<svg width="28" height="28" viewBox="0 0 28 28" fill="none" xmlns="http://www.w3.org/2000/svg">
<g clip-path="url(#clip0_174_82)">
<path d="M14.498 27.4429C7.0587 27.4429 0.998047 21.3822 0.998047 13.9429C0.998047 6.50353 7.0587 0.442871 14.498 0.442871C21.9374 0.442871 27.998 6.50353 27.998 13.9429C27.998 21.3822 21.9374 27.4429 14.498 27.4429ZM25.8845 15.789C25.4896 15.665 22.3162 14.7166 18.6991 15.2962C20.2069 19.4407 20.822 22.8157 20.9409 23.5186C23.5287 21.7695 25.3698 18.9961 25.8845 15.789ZM19.0028 24.5733C18.8315 23.5633 18.1591 20.0381 16.5416 15.8329L16.4674 15.854C9.95445 18.122 7.6257 22.6352 7.4232 23.0571C9.36636 24.5817 11.831 25.4913 14.498 25.4913C16.0936 25.4913 17.614 25.1664 18.9978 24.5767L19.0028 24.5733ZM5.93314 21.6725C6.19217 21.2202 9.35623 15.9856 15.3064 14.061C15.4557 14.0095 15.6093 13.9657 15.7586 13.9252C15.4684 13.2662 15.152 12.6114 14.8229 11.9702C9.06598 13.6881 3.48036 13.618 2.9758 13.6045L2.97158 13.9564C2.97158 16.9188 4.09208 19.6255 5.93398 21.6682L5.93314 21.6725ZM3.20867 11.5964C3.72758 11.6057 8.47705 11.6268 13.8695 10.1949C11.9584 6.79715 9.89708 3.94106 9.59417 3.5234C6.36767 5.04468 3.96045 8.01468 3.20867 11.5922V11.5964ZM11.8006 2.75053C12.117 3.18168 14.2129 6.0285 16.0978 9.50053C20.1976 7.96743 21.9374 5.63278 22.145 5.33915C20.1056 3.5234 17.4292 2.4299 14.498 2.4299C13.5708 2.4299 12.6654 2.53875 11.8006 2.75053ZM23.4241 6.66975C23.1819 6.99459 21.248 9.47353 16.9854 11.2133C17.2529 11.7668 17.5128 12.3212 17.7507 12.8873C17.8427 13.0898 17.9169 13.2923 17.9962 13.4813C21.8336 12.9979 25.6474 13.7758 26.0296 13.8551C26.0068 11.1307 25.0407 8.634 23.4317 6.67396L23.4241 6.66975Z" fill="#e5e5e5"/>
</g>
<defs>
<clipPath id="clip0_174_82">
<rect width="27" height="27" fill="white" transform="translate(0.998047 0.442871)"/>
</clipPath>
</defs>
</svg>
