<svg width="386" height="320" viewBox="0 0 386 320" fill="none" xmlns="http://www.w3.org/2000/svg">
<g clip-path="url(#clip0_176_168)">
<path d="M19.7928 217.437C8.86158 217.437 0 210.097 0 201.028V118.986C0 109.923 8.86158 102.577 19.7928 102.577C30.724 102.577 39.5855 109.923 39.5855 118.986V201.028C39.5855 210.077 30.724 217.437 19.7928 217.437Z" fill="#F1F1F1"/>
<path d="M77.5286 258.465C66.5974 258.465 57.7358 251.118 57.7358 242.056V77.9438C57.7358 68.8817 66.5974 61.5353 77.5286 61.5353C88.4598 61.5353 97.3214 68.8817 97.3214 77.9438V242.056C97.3296 251.118 88.4598 258.465 77.5286 258.465Z" fill="#F1F1F1"/>
<path d="M135.264 237.944C124.333 237.944 115.472 230.597 115.472 221.535V98.4647C115.472 89.4025 124.333 82.0562 135.264 82.0562C146.196 82.0562 155.065 89.4025 155.065 98.4647V221.535C155.057 230.597 146.196 237.944 135.264 237.944Z" fill="#F1F1F1"/>
<path d="M193 278.979C182.069 278.979 173.207 271.639 173.207 262.57V57.4366C173.207 48.3745 182.069 41.0281 193 41.0281C203.931 41.0281 212.793 48.3745 212.793 57.4366V262.563C212.793 271.632 203.931 278.979 193 278.979Z" fill="#F1F1F1"/>
<path d="M250.727 320C239.804 320 230.935 312.654 230.935 303.591V16.4085C230.935 7.34638 239.804 0 250.727 0C261.667 0 270.52 7.34638 270.52 16.4085V303.591C270.52 312.654 261.667 320 250.727 320Z" fill="#F1F1F1"/>
<path d="M308.48 258.465C297.54 258.465 288.687 251.118 288.687 242.056V77.9438C288.687 68.8817 297.54 61.5353 308.48 61.5353C319.403 61.5353 328.273 68.8817 328.273 77.9438V242.056C328.273 251.118 319.403 258.465 308.48 258.465Z" fill="#F1F1F1"/>
<path d="M366.207 196.923C355.276 196.923 346.415 189.576 346.415 180.521V139.493C346.415 130.431 355.276 123.084 366.207 123.084C377.139 123.084 386 130.431 386 139.493V180.521C386 189.576 377.139 196.923 366.207 196.923Z" fill="#F1F1F1"/>
</g>
<defs>
<clipPath id="clip0_176_168">
<rect width="386" height="320" fill="white"/>
</clipPath>
</defs>
</svg>
