<svg width="680" height="375" viewBox="0 0 680 375" fill="none" xmlns="http://www.w3.org/2000/svg">
<path d="M677.5 2.99992L604.269 65.2916C575.606 89.673 535.151 94.5758 501.494 77.7471V77.7471C452.608 53.3042 395.166 52.8435 345.894 76.4991L292.607 102.083C257.168 119.097 233.23 153.43 229.518 192.565L224.368 246.871C218.745 306.151 275.516 351.899 332.246 333.804V333.804C403.103 311.202 410.778 213.997 344.346 180.555L243.127 129.602C192.749 104.241 131.745 114.467 92.3904 154.869L71.2052 176.618C42.4396 206.15 23.5041 243.85 16.9908 284.557L3.00001 372" stroke="white" stroke-width="5" stroke-linecap="round" stroke-dasharray="10 10"/>
</svg>
