<svg width="350" height="428" viewBox="0 0 350 428" fill="none" xmlns="http://www.w3.org/2000/svg">
<path d="M175 194.545C194.229 194.545 213.026 188.841 229.014 178.152C245.002 167.464 257.463 152.272 264.822 134.497C272.18 116.723 274.105 97.1649 270.354 78.2958C266.603 59.4267 257.343 42.0944 243.746 28.4906C230.15 14.8867 212.826 5.6224 193.967 1.86911C175.108 -1.88418 155.56 0.0421467 137.795 7.40449C120.03 14.7668 104.846 27.2345 94.1627 43.2309C83.4798 59.2274 77.7778 78.034 77.7778 97.2728C77.8087 123.062 88.0616 147.785 106.288 166.021C124.514 184.256 149.225 194.515 175 194.545ZM175 38.9091C186.537 38.9091 197.815 42.3321 207.408 48.7452C217.001 55.1583 224.478 64.2734 228.893 74.938C233.308 85.6025 234.463 97.3375 232.212 108.659C229.962 119.98 224.406 130.38 216.248 138.542C208.09 146.704 197.696 152.263 186.38 154.515C175.065 156.767 163.336 155.611 152.677 151.194C142.018 146.776 132.907 139.296 126.498 129.698C120.088 120.1 116.667 108.816 116.667 97.2728C116.667 81.7938 122.812 66.9487 133.752 56.0034C144.692 45.0581 159.529 38.9091 175 38.9091ZM19.4444 428H330.556C335.713 428 340.658 425.95 344.305 422.302C347.951 418.653 350 413.705 350 408.545V330.727C349.969 304.938 339.716 280.215 321.49 261.979C303.264 243.744 278.553 233.485 252.778 233.455H97.2222C71.4468 233.485 46.7358 243.744 28.5098 261.979C10.2838 280.215 0.030875 304.938 0 330.727V408.545C0 413.705 2.0486 418.653 5.69515 422.302C9.34169 425.95 14.2875 428 19.4444 428ZM38.8889 330.727C38.8889 315.248 45.0347 300.403 55.9743 289.458C66.9139 278.513 81.7513 272.364 97.2222 272.364H252.778C268.249 272.364 283.086 278.513 294.026 289.458C304.965 300.403 311.111 315.248 311.111 330.727V389.091H38.8889V330.727Z" fill="#E5E5E5"/>
</svg>
