<svg width="383" height="309" viewBox="0 0 383 309" fill="none" xmlns="http://www.w3.org/2000/svg">
        <path d="M339.752 163.886C335.609 163.886 332.252 167.243 332.252 171.386V265.354C332.252 269.497 335.609 272.854 339.752 272.854C343.895 272.854 347.252 269.497 347.252 265.354V171.386C347.252 167.243 343.895 163.886 339.752 163.886Z" fill="#fbfbfb"/>
        <path d="M320.999 158.886H358.504C362.647 158.886 366.004 155.529 366.004 151.386V74.927C366.004 70.784 362.647 67.427 358.504 67.427H347.252V36.573C347.252 32.43 343.895 29.073 339.752 29.073C335.609 29.073 332.252 32.43 332.252 36.573V67.427H320.999C316.856 67.427 313.499 70.784 313.499 74.927V151.386C313.499 155.528 316.856 158.886 320.999 158.886ZM328.499 82.427H351.004V143.886H328.499V82.427Z" fill="#F1F1F1"/>
        <path d="M242.251 240.541C238.108 240.541 234.751 243.898 234.751 248.041V266.395C234.751 270.538 238.108 273.895 242.251 273.895C246.394 273.895 249.751 270.538 249.751 266.395V248.041C249.751 243.898 246.394 240.541 242.251 240.541Z" fill="#F1F1F1"/>
        <path d="M223.498 235.541H261.003C265.146 235.541 268.503 232.184 268.503 228.041V151.582C268.503 147.439 265.146 144.082 261.003 144.082H249.751V37.614C249.751 33.471 246.394 30.114 242.251 30.114C238.108 30.114 234.751 33.471 234.751 37.614V144.082H223.498C219.355 144.082 215.998 147.439 215.998 151.582V228.041C215.998 232.184 219.355 235.541 223.498 235.541ZM230.998 159.082H253.503V220.541H230.998V159.082Z" fill="#F1F1F1"/>
        <path d="M144.75 163.886C140.608 163.886 137.25 167.243 137.25 171.386V265.354C137.25 269.497 140.608 272.854 144.75 272.854C148.892 272.854 152.25 269.497 152.25 265.354V171.386C152.25 167.243 148.892 163.886 144.75 163.886Z" fill="#F1F1F1"/>
        <path d="M125.997 158.886H163.502C167.644 158.886 171.002 155.529 171.002 151.386V74.927C171.002 70.784 167.644 67.427 163.502 67.427H152.25V36.573C152.25 32.43 148.892 29.073 144.75 29.073C140.608 29.073 137.25 32.43 137.25 36.573V67.427H125.998C121.856 67.427 118.498 70.784 118.498 74.927V151.386C118.497 155.528 121.855 158.886 125.997 158.886ZM133.497 82.427H156.002V143.886H133.497V82.427Z" fill="#F1F1F1"/>
        <path d="M47.249 240.541C43.107 240.541 39.749 243.898 39.749 248.041V266.395C39.749 270.538 43.107 273.895 47.249 273.895C51.391 273.895 54.749 270.538 54.749 266.395V248.041C54.749 243.898 51.391 240.541 47.249 240.541Z" fill="#F1F1F1"/>
        <path d="M28.4961 235.541H66.0011C70.1431 235.541 73.5011 232.184 73.5011 228.041V151.582C73.5011 147.439 70.1431 144.082 66.0011 144.082H54.7491V37.614C54.7491 33.471 51.3911 30.114 47.2491 30.114C43.1071 30.114 39.7491 33.471 39.7491 37.614V144.082H28.4961C24.3541 144.082 20.9961 147.439 20.9961 151.582V228.041C20.9961 232.184 24.3541 235.541 28.4961 235.541ZM35.9961 159.082H58.5011V220.541H35.9961V159.082Z" fill="#F1F1F1"/>
</svg>
