<svg width="343" height="343" viewBox="0 0 343 343" fill="none" xmlns="http://www.w3.org/2000/svg">
<path fill-rule="evenodd" clip-rule="evenodd" d="M171.5 34.3C135.112 34.3 100.215 48.7549 74.485 74.485C48.7549 100.215 34.3 135.112 34.3 171.5H78.89C94.0921 171.5 108.83 177.244 119.822 187.712C130.843 198.208 137.2 212.627 137.2 227.85V286.65C137.2 301.873 130.843 316.292 119.822 326.788C108.83 337.256 94.0921 343 78.89 343H58.31C43.1079 343 28.3702 337.256 17.3779 326.788C6.35716 316.292 0 301.873 0 286.65V171.5C0 126.015 18.0687 82.3937 50.2311 50.2311C82.3937 18.0687 126.015 0 171.5 0C216.985 0 260.606 18.0687 292.769 50.2311C324.931 82.3937 343 126.015 343 171.5V286.65C343 301.873 336.642 316.292 325.622 326.788C314.63 337.256 299.892 343 284.69 343H264.11C248.908 343 234.17 337.256 223.178 326.788C212.158 316.292 205.8 301.873 205.8 286.65V227.85C205.8 212.627 212.158 198.208 223.178 187.712C234.17 177.244 248.908 171.5 264.11 171.5H308.7C308.7 135.112 294.244 100.215 268.516 74.485C242.786 48.7549 207.887 34.3 171.5 34.3ZM308.7 205.8H264.11C257.48 205.8 251.278 208.316 246.833 212.55C242.415 216.757 240.1 222.279 240.1 227.85V286.65C240.1 292.221 242.415 297.743 246.833 301.95C251.278 306.184 257.48 308.7 264.11 308.7H284.69C291.32 308.7 297.522 306.184 301.967 301.95C306.385 297.743 308.7 292.221 308.7 286.65V205.8ZM34.3 205.8H78.89C85.5205 205.8 91.7213 208.316 96.1669 212.55C100.584 216.757 102.9 222.279 102.9 227.85V286.65C102.9 292.221 100.584 297.743 96.1669 301.95C91.7213 306.184 85.5205 308.7 78.89 308.7H58.31C51.6795 308.7 45.4787 306.184 41.0331 301.95C36.6158 297.743 34.3 292.221 34.3 286.65V205.8Z" fill="#E5E5E5"/>
</svg>
