<?xml version="1.0" encoding="iso-8859-1"?>
<!-- Uploaded to: SVG Repo, www.svgrepo.com, Generator: SVG Repo Mixer Tools -->
<svg fill="#e5e5e5" height="800px" width="800px" version="1.1" id="Layer_1" xmlns="http://www.w3.org/2000/svg" xmlns:xlink="http://www.w3.org/1999/xlink" 
	 viewBox="0 0 512 512" xml:space="preserve">
<g>
	<g>
		<path d="M453.666,251.642l50.055-50.055c11.039-11.04,11.039-28.939,0-39.978c-11.04-11.04-28.938-11.04-39.978,0l-50.055,50.055
			l-50.055-50.055c-11.039-11.038-28.939-11.038-39.978,0c-11.039,11.039-11.039,28.938,0,39.978l50.055,50.055l-50.055,50.055
			c-11.039,11.04-11.039,28.939,0,39.978c11.039,11.039,28.938,11.04,39.978,0l50.055-50.055l50.055,50.055
			c11.039,11.039,28.938,11.04,39.978,0c11.039-11.039,11.039-28.938,0-39.978L453.666,251.642z"/>
	</g>
</g>
<g>
	<g>
		<path d="M231.648,109.542l-97.114,51.088c0.135,1.384,0.084-10.703,0.084,190.786l97.03,51.045
			c11.243,5.912,24.858-2.213,24.858-15.011V124.554C256.506,111.806,242.928,103.607,231.648,109.542z"/>
	</g>
</g>
<g>
	<g>
		<path d="M86.83,168.954H16.961C7.594,168.954,0,176.548,0,185.916v140.171c0,9.367,7.594,16.961,16.961,16.961H86.83
			c9.43,0,16.961-7.7,16.961-16.961V185.916C103.79,176.646,96.252,168.954,86.83,168.954z"/>
	</g>
</g>
</svg>