<svg width="28" height="28" viewBox="0 0 28 28" xmlns="http://www.w3.org/2000/svg">
<g clip-path="url(#clip0_174_79)">
<path d="M24.7398 7.60896C24.3306 6.22668 23.6736 5.06302 22.7302 4.05175C21.8078 3.06256 20.7464 2.31246 19.4853 1.75836C18.0486 1.12888 16.3831 0.823018 14.7919 0.89679C14.2114 0.923176 13.6444 0.953869 13.0887 1.0341C11.5228 1.25811 10.1437 1.72497 8.87344 2.46108C7.25208 3.40234 5.98611 4.68178 5.11107 6.26491C4.65659 7.08879 4.20912 8.54161 4.01903 9.49042C3.79395 10.6094 3.99211 12.5495 4.44389 13.6437C5.00822 15.0077 5.47239 15.6124 6.60482 16.4562C6.61182 16.4611 7.31185 16.9651 7.77817 16.9575C8.62736 16.9414 8.79644 16.1288 8.87721 15.7384C8.89229 15.6646 8.90737 15.592 8.92514 15.5236C8.94075 15.4633 8.96122 15.3986 8.98222 15.3313C9.1023 14.9436 9.26546 14.4127 8.9946 13.942C8.89283 13.7654 8.77221 13.6281 8.66613 13.5075C8.60851 13.4418 8.55035 13.3783 8.50351 13.3083C8.10072 12.71 7.89664 11.9615 7.89664 11.0838C7.89664 9.93197 8.15726 8.8884 8.69413 7.89436C9.6677 6.09098 11.2831 4.95317 13.3665 4.60208C14.5523 4.40338 15.934 4.48685 16.9706 4.81855C17.9178 5.12225 18.7239 5.65912 19.3022 6.37261C19.9145 7.12756 20.2645 8.08498 20.342 9.21902C20.3926 9.94274 20.3269 10.6718 20.2726 11.1559C20.0631 13.0196 19.5208 14.5198 18.6603 15.6156C17.9555 16.5149 17.1957 16.9656 16.3368 16.9947C15.7838 17.0162 15.3702 16.9032 14.9965 16.6355C14.6438 16.3841 14.4338 16.0739 14.3347 15.6609C14.2227 15.1892 14.3579 14.7002 14.5017 14.1822L14.5248 14.0993C14.6503 13.6437 14.7817 13.2275 14.9104 12.8177C15.1128 12.1721 15.3228 11.5049 15.4957 10.7305C15.6912 9.85658 15.717 9.15064 15.5754 8.57392C15.4009 7.85774 15.0159 7.32141 14.4311 6.97894C13.8124 6.61816 12.9357 6.54869 12.1996 6.80178C11.1028 7.17602 10.266 8.17221 9.90356 9.53457C9.71994 10.2265 9.66663 10.9529 9.74578 11.6917C9.80663 12.2711 9.93641 12.7978 10.176 13.4337C10.168 13.4612 10.1593 13.4903 10.1507 13.5183C10.1335 13.5748 10.1179 13.6297 10.106 13.6766C9.8481 14.7535 9.59716 15.8154 9.34677 16.8752C9.1093 17.8816 8.87129 18.8864 8.62843 19.9014L8.57351 20.1287C8.32473 21.1625 8.06841 22.232 8.00864 23.5087L7.98172 24.0418C7.92895 25.0337 7.87564 26.0595 8.00864 27.0083C8.03503 27.1935 8.09318 27.6087 8.50189 27.7536C8.62413 27.8451 8.74152 27.8839 8.85567 27.8839C9.19761 27.8839 9.50185 27.5365 9.76086 27.242C10.6057 26.2813 11.3241 25.0682 11.9573 23.5346C12.2406 22.8485 12.4285 22.1103 12.61 21.3962L12.7193 20.9708C12.8517 20.4625 12.9815 19.9472 13.1102 19.4372L13.1188 19.4033C13.3574 19.6123 13.6331 19.8007 13.9524 19.9757C14.6282 20.35 15.3907 20.5681 16.2178 20.6235C16.9932 20.6763 17.8095 20.5767 18.7104 20.3182C19.3948 20.1233 20.0496 19.8266 20.6581 19.4372C22.8411 18.0394 24.3289 15.5941 24.848 12.5522C25.0037 11.6433 25.0699 10.9125 25.0699 10.1091C25.0688 9.18402 24.9584 8.34184 24.7398 7.60896ZM23.7856 12.3729C23.3177 15.1127 22.0005 17.3 20.076 18.5321C19.5558 18.8654 18.9964 19.1179 18.4121 19.2849C17.6335 19.5089 16.9377 19.5956 16.2894 19.5514C15.6104 19.5056 15.0164 19.3371 14.4699 19.0345C13.9233 18.7356 13.569 18.4109 13.3202 17.9817L12.66 16.8412L12.065 19.1766C11.9374 19.6833 11.8082 20.196 11.6762 20.7016L11.5659 21.1335C11.3855 21.8416 11.2158 22.5109 10.9611 23.1258C10.3941 24.5001 9.76086 25.5872 9.02853 26.4445C8.97145 25.7149 9.01453 24.8964 9.05653 24.101L9.08399 23.5615C9.13838 22.3865 9.38339 21.3682 9.61978 20.3834L9.67524 20.1545C9.9181 19.1389 10.1561 18.1325 10.3941 17.1255C10.6445 16.0664 10.8949 15.0055 11.1523 13.9313C11.1598 13.9011 11.1706 13.8656 11.1819 13.8284C11.2465 13.6114 11.3138 13.3869 11.2228 13.1591C10.9918 12.5673 10.8701 12.0951 10.8157 11.5803C10.7511 10.9718 10.7937 10.3773 10.9439 9.81297C11.2121 8.80439 11.7963 8.07906 12.548 7.82274C12.7344 7.75866 12.9293 7.73174 13.1167 7.73174C13.422 7.73174 13.7052 7.80497 13.8872 7.91105C14.2141 8.10275 14.4241 8.40322 14.528 8.83185C14.6277 9.23895 14.5997 9.79951 14.444 10.4979C14.2803 11.2276 14.087 11.8441 13.8819 12.4973C13.7494 12.9184 13.6153 13.3459 13.4861 13.8144L13.4635 13.8963C13.2976 14.4934 13.1102 15.1703 13.2868 15.9123C13.4473 16.5844 13.8016 17.1078 14.3697 17.5138C14.9341 17.9171 15.5964 18.0975 16.3729 18.0733C17.5527 18.0334 18.607 17.4309 19.5074 16.2828C20.4933 15.0271 21.111 13.3438 21.3431 11.2776C21.4012 10.751 21.4728 9.95728 21.4168 9.14687C21.3231 7.78774 20.8934 6.62677 20.139 5.69628C19.4288 4.82017 18.4466 4.16268 17.2996 3.7949C16.109 3.41311 14.5334 3.31511 13.1883 3.54127C10.7651 3.94944 8.88367 5.27788 7.7464 7.38388C7.12284 8.53946 6.81967 9.74996 6.81967 11.0849C6.81967 12.1812 7.08515 13.1316 7.60963 13.9103C7.68178 14.018 7.76794 14.1181 7.85733 14.2194C7.93756 14.3109 8.01349 14.3971 8.0598 14.4773C8.09265 14.5651 7.99895 14.8688 7.95372 15.0147C7.92841 15.0971 7.90418 15.1762 7.88479 15.25C7.86218 15.3362 7.84279 15.4283 7.8234 15.5209C7.8024 15.6221 7.7701 15.7788 7.73617 15.865C7.60855 15.8149 7.37539 15.6867 7.24938 15.5936C6.28173 14.8731 5.92687 14.4094 5.44116 13.2339C5.07661 12.3503 4.89568 10.6018 5.07661 9.70366C5.27854 8.69723 5.70879 7.41619 6.05557 6.7867C6.83475 5.37642 7.96503 4.23484 9.41516 3.39373C10.5637 2.72817 11.8152 2.30492 13.2432 2.10083C13.751 2.02706 14.2895 1.99852 14.843 1.97321C16.27 1.9059 17.7665 2.18053 19.0534 2.74486C20.1778 3.23865 21.1234 3.90636 21.9435 4.78678C22.7706 5.67312 23.3473 6.69624 23.7081 7.91536C23.8971 8.54915 23.9924 9.28849 23.9924 10.1113C23.9919 10.8506 23.9299 11.527 23.7856 12.3729Z" fill="#e5e5e5"/>
</g>
<defs>
<clipPath id="clip0_174_79">
<rect width="27" height="27" transform="translate(0.99707 0.886047)"/>
</clipPath>
</defs>
</svg>
