<svg width="383" height="364" viewBox="0 0 383 364" fill="none" xmlns="http://www.w3.org/2000/svg">
<g clip-path="url(#clip0_176_209)">
<path d="M183.289 142.119C185.922 134.612 197.077 134.612 199.71 142.119L215.15 186.186C218.549 195.873 224.274 204.674 231.874 211.893C239.473 219.111 248.737 224.548 258.932 227.773L305.275 242.447C313.174 244.949 313.174 255.551 305.275 258.053L258.908 272.727C248.715 275.957 239.454 281.399 231.859 288.621C224.264 295.843 218.543 304.648 215.15 314.337L199.71 358.381C199.143 360.025 198.043 361.456 196.569 362.471C195.094 363.486 193.32 364.032 191.5 364.032C189.679 364.032 187.905 363.486 186.431 362.471C184.956 361.456 183.857 360.025 183.289 358.381L167.85 314.314C164.454 304.629 158.731 295.829 151.136 288.611C143.541 281.393 134.282 275.954 124.092 272.727L77.7249 258.053C75.9951 257.514 74.4888 256.469 73.4209 255.067C72.353 253.666 71.7781 251.98 71.7781 250.25C71.7781 248.52 72.353 246.834 73.4209 245.432C74.4888 244.031 75.9951 242.986 77.7249 242.447L124.092 227.773C134.282 224.545 143.541 219.107 151.136 211.889C158.731 204.67 164.454 195.87 167.85 186.186L183.289 142.119ZM90.8187 26.1169C91.1619 25.1317 91.8232 24.2743 92.7084 23.6667C93.5936 23.059 94.6578 22.732 95.7498 22.732C96.8418 22.732 97.906 23.059 98.7912 23.6667C99.6764 24.2743 100.338 25.1317 100.681 26.1169L109.945 52.5524C114.086 64.3369 123.805 73.5734 136.204 77.5091L164.02 86.3134C165.056 86.6396 165.958 87.268 166.598 88.1093C167.237 88.9507 167.581 89.9621 167.581 90.9999C167.581 92.0377 167.237 93.0491 166.598 93.8904C165.958 94.7317 165.056 95.3601 164.02 95.6864L136.204 104.491C130.089 106.427 124.532 109.69 119.974 114.022C115.416 118.354 111.982 123.635 109.945 129.447L100.681 155.883C100.338 156.868 99.6764 157.725 98.7912 158.333C97.906 158.941 96.8418 159.268 95.7498 159.268C94.6578 159.268 93.5936 158.941 92.7084 158.333C91.8232 157.725 91.1619 156.868 90.8187 155.883L81.5549 129.447C79.5174 123.635 76.0836 118.354 71.5257 114.022C66.9677 109.69 61.4109 106.427 55.2954 104.491L27.48 95.6864C26.4434 95.3601 25.5413 94.7317 24.902 93.8904C24.2626 93.0491 23.9185 92.0377 23.9185 90.9999C23.9185 89.9621 24.2626 88.9507 24.902 88.1093C25.5413 87.268 26.4434 86.6396 27.48 86.3134L55.2954 77.5091C61.4109 75.5727 66.9677 72.3093 71.5257 67.9775C76.0836 63.6456 79.5174 58.3644 81.5549 52.5524L90.8187 26.1169ZM260.033 2.25212C260.269 1.60434 260.712 1.04264 261.3 0.645097C261.887 0.247556 262.591 0.0339355 263.312 0.0339355C264.034 0.0339355 264.737 0.247556 265.325 0.645097C265.913 1.04264 266.355 1.60434 266.592 2.25212L272.768 19.8606C275.52 27.7321 282.007 33.8974 290.29 36.5136L308.817 42.3831C309.499 42.6077 310.09 43.0285 310.508 43.5871C310.927 44.1457 311.151 44.8143 311.151 45.4999C311.151 46.1855 310.927 46.854 310.508 47.4126C310.09 47.9712 309.499 48.392 308.817 48.6166L290.29 54.4861C286.208 55.7766 282.499 57.9536 279.458 60.8444C276.416 63.7351 274.125 67.26 272.768 71.1391L266.592 88.7476C266.355 89.3954 265.913 89.9571 265.325 90.3547C264.737 90.7522 264.034 90.9658 263.312 90.9658C262.591 90.9658 261.887 90.7522 261.3 90.3547C260.712 89.9571 260.269 89.3954 260.033 88.7476L253.857 71.1391C252.499 67.26 250.209 63.7351 247.167 60.8444C244.125 57.9536 240.416 55.7766 236.335 54.4861L217.831 48.6166C217.149 48.392 216.558 47.9712 216.14 47.4126C215.722 46.854 215.497 46.1855 215.497 45.4999C215.497 44.8143 215.722 44.1457 216.14 43.5871C216.558 43.0285 217.149 42.6077 217.831 42.3831L236.359 36.5136C244.641 33.8974 251.128 27.7321 253.881 19.8606L260.033 2.27487V2.25212Z" fill="#F1F1F1"/>
</g>
<defs>
<clipPath id="clip0_176_209">
<rect width="383" height="364" fill="white"/>
</clipPath>
</defs>
</svg>
