<svg width="27" height="27" viewBox="0 0 27 27" fill="none" xmlns="http://www.w3.org/2000/svg">
<g clip-path="url(#clip0_174_77)">
<path d="M24.9959 -0.00441975C24.647 0.0131584 24.3184 0.123021 24.0264 0.246068H24.0223C23.7262 0.373509 22.3186 1.01511 20.1808 1.9863C18.043 2.96189 15.2684 4.22751 12.514 5.48435C7.01344 7.99363 1.60613 10.4634 1.60613 10.4634L1.67104 10.437C1.67104 10.437 1.29784 10.5688 0.908417 10.8589C0.70965 10.9995 0.490598 11.1928 0.299944 11.4961C0.109289 11.7993 -0.0448583 12.2651 0.0119331 12.7441C0.105233 13.5571 0.592012 14.0449 0.940869 14.313C1.29378 14.5854 1.63047 14.7129 1.63047 14.7129H1.63859L6.7092 16.563C6.93636 17.354 8.25472 22.0473 8.57113 23.1284C8.75773 23.7744 8.94027 24.1787 9.16743 24.4863C9.27696 24.6445 9.40676 24.7763 9.56091 24.8818C9.62176 24.9214 9.68666 24.9521 9.75157 24.9785C9.77185 24.9917 9.79213 24.9961 9.81647 25.0005L9.76374 24.9873C9.77996 24.9917 9.79213 25.0049 9.8043 25.0093C9.84487 25.0224 9.87326 25.0268 9.926 25.0356C10.7292 25.2993 11.3742 24.7588 11.3742 24.7588L11.4107 24.728L14.4044 21.7749L19.4222 25.9453L19.5358 25.998C20.5824 26.4946 21.6411 26.2177 22.2009 25.73C22.7648 25.2378 22.9838 24.6093 22.9838 24.6093L23.0203 24.5083L26.8984 2.98826C27.0079 2.45652 27.0363 1.95994 26.9146 1.47654C26.7929 0.993139 26.4805 0.540502 26.1033 0.298803C25.722 0.0527089 25.3447 -0.0219979 24.9959 -0.00441975ZM24.8904 2.30271C24.8863 2.37302 24.8985 2.36423 24.8701 2.50046V2.51365L21.0286 23.8095C21.0124 23.8403 20.984 23.9062 20.9069 23.9721C20.8258 24.0425 20.7609 24.0864 20.4242 23.9414L14.2867 18.8437L10.5791 22.5044L11.3579 17.1167C11.3579 17.1167 20.9718 7.40915 21.3856 6.99167C21.7993 6.57419 21.6614 6.4863 21.6614 6.4863C21.6898 5.97654 21.0367 6.33689 21.0367 6.33689L8.39264 14.8227L8.38859 14.8008L2.32819 12.5903V12.5859C2.32413 12.5859 2.31602 12.5815 2.31196 12.5815C2.31602 12.5815 2.34442 12.5683 2.34442 12.5683L2.37687 12.5508L2.40932 12.5376C2.40932 12.5376 7.82068 10.0678 13.3213 7.55857C16.0756 6.30173 18.8503 5.03611 20.984 4.06052C23.1177 3.08933 24.6957 2.37742 24.7849 2.33787C24.8701 2.30271 24.8295 2.30271 24.8904 2.30271Z" fill="#e5e5e5"/>
</g>
<defs>
<clipPath id="clip0_174_77">
<rect width="27" height="27" fill="white"/>
</clipPath>
</defs>
</svg>
