<svg width="40" height="45" viewBox="0 0 40 45" fill="none" xmlns="http://www.w3.org/2000/svg">
<g clip-path="url(#clip0_162_20)">
<path d="M1.98195 1.45316L10.4385 16.5938L18.4147 1.45316" stroke="white" stroke-width="2" stroke-miterlimit="10"/>
<path d="M11.5575 1.45316L19.9987 16.5938L28.1742 1.45316L37.4022 16.5938L26.3909 16.6873" stroke="white" stroke-width="2" stroke-miterlimit="10"/>
<path d="M20.0038 16.5938L11.6903 32.1797L2.59 16.6873" stroke="white" stroke-width="2" stroke-miterlimit="10"/>
<path d="M26.4113 24.3867H37.4022" stroke="white" stroke-width="2" stroke-miterlimit="10"/>
<path d="M26.4113 32.006H37.4022" stroke="white" stroke-width="2" stroke-miterlimit="10"/>
</g>
<path d="M3.528 38.7792C3.458 38.6998 3.37633 38.6298 3.283 38.5692C3.18967 38.5038 3.08467 38.4478 2.968 38.4012C2.85133 38.3545 2.72533 38.3172 2.59 38.2892C2.45933 38.2612 2.31933 38.2472 2.17 38.2472C1.736 38.2472 1.41633 38.3312 1.211 38.4992C1.01033 38.6625 0.91 38.8865 0.91 39.1712C0.91 39.3672 0.956667 39.5212 1.05 39.6332C1.148 39.7452 1.29967 39.8362 1.505 39.9062C1.71033 39.9762 1.97167 40.0485 2.289 40.1232C2.64367 40.1978 2.94933 40.2865 3.206 40.3892C3.46267 40.4918 3.661 40.6318 3.801 40.8092C3.941 40.9818 4.011 41.2175 4.011 41.5162C4.011 41.7448 3.96667 41.9432 3.878 42.1112C3.78933 42.2792 3.66567 42.4192 3.507 42.5312C3.34833 42.6432 3.15933 42.7272 2.94 42.7832C2.72067 42.8345 2.48033 42.8602 2.219 42.8602C1.96233 42.8602 1.715 42.8345 1.477 42.7832C1.24367 42.7272 1.022 42.6478 0.812 42.5452C0.602 42.4378 0.406 42.3025 0.224 42.1392L0.469 41.7402C0.557667 41.8335 0.662667 41.9222 0.784 42.0062C0.91 42.0855 1.04767 42.1578 1.197 42.2232C1.351 42.2885 1.51433 42.3398 1.687 42.3772C1.86433 42.4098 2.04633 42.4262 2.233 42.4262C2.62967 42.4262 2.93767 42.3538 3.157 42.2092C3.381 42.0645 3.493 41.8498 3.493 41.5652C3.493 41.3598 3.437 41.1965 3.325 41.0752C3.213 40.9492 3.045 40.8465 2.821 40.7672C2.597 40.6878 2.32167 40.6108 1.995 40.5362C1.64967 40.4568 1.358 40.3682 1.12 40.2702C0.882 40.1722 0.702333 40.0438 0.581 39.8852C0.464333 39.7218 0.406 39.5072 0.406 39.2412C0.406 38.9332 0.480667 38.6742 0.63 38.4642C0.784 38.2495 0.994 38.0885 1.26 37.9812C1.526 37.8692 1.83167 37.8132 2.177 37.8132C2.39633 37.8132 2.59933 37.8365 2.786 37.8832C2.97733 37.9252 3.15233 37.9882 3.311 38.0722C3.47433 38.1562 3.626 38.2612 3.766 38.3872L3.528 38.7792ZM10.517 42.8532C10.167 42.8532 9.84962 42.7832 9.56495 42.6432C9.28029 42.5032 9.03529 42.3142 8.82995 42.0762C8.62462 41.8335 8.46595 41.5628 8.35395 41.2642C8.24195 40.9608 8.18595 40.6505 8.18595 40.3332C8.18595 40.0018 8.24429 39.6868 8.36095 39.3882C8.47762 39.0848 8.64095 38.8165 8.85095 38.5832C9.06562 38.3452 9.31529 38.1585 9.59995 38.0232C9.88462 37.8832 10.1926 37.8132 10.524 37.8132C10.874 37.8132 11.1913 37.8855 11.476 38.0302C11.7606 38.1748 12.0033 38.3685 12.204 38.6112C12.4093 38.8538 12.568 39.1245 12.68 39.4232C12.792 39.7218 12.848 40.0275 12.848 40.3402C12.848 40.6715 12.7896 40.9888 12.673 41.2922C12.5563 41.5908 12.393 41.8592 12.183 42.0972C11.973 42.3305 11.7256 42.5148 11.441 42.6502C11.1563 42.7855 10.8483 42.8532 10.517 42.8532ZM8.67595 40.3332C8.67595 40.6038 8.72029 40.8652 8.80895 41.1172C8.89762 41.3645 9.02362 41.5862 9.18695 41.7822C9.35029 41.9735 9.54395 42.1275 9.76795 42.2442C9.99662 42.3562 10.2463 42.4122 10.517 42.4122C10.8016 42.4122 11.056 42.3538 11.28 42.2372C11.5086 42.1158 11.7023 41.9572 11.861 41.7612C12.0243 41.5605 12.148 41.3365 12.232 41.0892C12.316 40.8418 12.358 40.5898 12.358 40.3332C12.358 40.0625 12.3136 39.8035 12.225 39.5562C12.1363 39.3088 12.008 39.0872 11.84 38.8912C11.6766 38.6952 11.483 38.5412 11.259 38.4292C11.035 38.3172 10.7876 38.2612 10.517 38.2612C10.237 38.2612 9.98262 38.3195 9.75395 38.4362C9.52995 38.5528 9.33629 38.7115 9.17295 38.9122C9.01429 39.1082 8.89062 39.3298 8.80195 39.5772C8.71795 39.8245 8.67595 40.0765 8.67595 40.3332ZM19.4348 42.8532C19.0428 42.8532 18.7115 42.7832 18.4408 42.6432C18.1701 42.5032 17.9555 42.3165 17.7968 42.0832C17.6381 41.8452 17.5215 41.5768 17.4468 41.2782C17.3768 40.9795 17.3418 40.6715 17.3418 40.3542V37.8482H17.8248V40.3542C17.8248 40.6108 17.8505 40.8628 17.9018 41.1102C17.9578 41.3575 18.0465 41.5792 18.1678 41.7752C18.2891 41.9712 18.4525 42.1275 18.6578 42.2442C18.8631 42.3562 19.1198 42.4122 19.4278 42.4122C19.7451 42.4122 20.0065 42.3538 20.2118 42.2372C20.4218 42.1158 20.5851 41.9572 20.7018 41.7612C20.8231 41.5652 20.9095 41.3458 20.9608 41.1032C21.0121 40.8558 21.0378 40.6062 21.0378 40.3542V37.8482H21.5278V40.3542C21.5278 40.6855 21.4905 41.0028 21.4158 41.3062C21.3411 41.6095 21.2198 41.8755 21.0518 42.1042C20.8885 42.3328 20.6738 42.5148 20.4078 42.6502C20.1418 42.7855 19.8175 42.8532 19.4348 42.8532ZM26.826 38.7512V42.8182H26.336V37.8482H26.742L30.004 41.9922V37.8552H30.494V42.8182H30.039L26.826 38.7512ZM35.3832 42.8182V37.8482H37.0702C37.5975 37.8482 38.0362 37.9602 38.3862 38.1842C38.7409 38.4035 39.0069 38.7022 39.1842 39.0802C39.3615 39.4535 39.4502 39.8688 39.4502 40.3262C39.4502 40.8302 39.3522 41.2688 39.1562 41.6422C38.9649 42.0155 38.6895 42.3048 38.3302 42.5102C37.9755 42.7155 37.5555 42.8182 37.0702 42.8182H35.3832ZM38.9602 40.3262C38.9602 39.9295 38.8855 39.5772 38.7362 39.2692C38.5915 38.9612 38.3792 38.7208 38.0992 38.5482C37.8192 38.3708 37.4762 38.2822 37.0702 38.2822H35.8732V42.3842H37.0702C37.4809 42.3842 37.8262 42.2932 38.1062 42.1112C38.3862 41.9292 38.5985 41.6842 38.7432 41.3762C38.8879 41.0635 38.9602 40.7135 38.9602 40.3262Z" fill="white"/>
<defs>
<clipPath id="clip0_162_20">
<rect width="40" height="33.75" fill="white"/>
</clipPath>
</defs>
</svg>
